# xmcd
#
# Track frame offsets:
#        150
#        13077
#        34907
#        49397
#        52202
#
# Disc length: 992 seconds
#
# Revision: 0
# Processed by: cddbd v1.5.1PL0 Copyright (c) Steve Scherf et al.
# Submitted via: ExactAudioCopy v0.95a5
#
DISCID=4503de05
DTITLE=CHANIWA - TOONRIDE
DYEAR=1900
DGENRE=
TTITLE0=FYA
TTITLE1=Freckles and The Sun
TTITLE2=Mr. Ordinary
TTITLE3=Saigan Fear
TTITLE4=The Sunset Glow
EXTD=
EXTT0=
EXTT1=
EXTT2=
EXTT3=
EXTT4=
PLAYORDER=
